<?xml version='1.0' encoding='UTF-8' standalone='no'?>
<!-- Created with Fritzing (http://www.fritzing.org/) -->
<svg xmlns="http://www.w3.org/2000/svg" x="0in" y="0in" baseProfile="tiny" width="0.608in"  version="1.2" viewBox="0 0 15.4432 13.2032" height="0.519811in">
    <desc >
        <referenceFile >sparkfun-connectors_rj45-8_pcb_fix.svg</referenceFile>
    </desc>
    <g id="copper0" gorn="0.1" >
        <g id="copper1" gorn="0.1.0" >
            <circle r="0.7199" stroke-width="0.4398" connectorname="8" cy="1.2116" id="connector7pad" fill="none" gorn="0.1.0.0"  cx="12.1666" stroke="#F7BD13"/>
            <circle r="0.7199" stroke-width="0.4398" connectorname="7" cy="3.7516" id="connector6pad" fill="none" gorn="0.1.0.1"  cx="10.8966" stroke="#F7BD13"/>
            <circle r="0.7199" stroke-width="0.4398" connectorname="6" cy="1.2116" id="connector5pad" fill="none" gorn="0.1.0.2"  cx="9.6266" stroke="#F7BD13"/>
            <circle r="0.7199" stroke-width="0.4398" connectorname="4" cy="1.2116" id="connector3pad" fill="none" gorn="0.1.0.3"  cx="7.0866" stroke="#F7BD13"/>
            <circle r="0.7199" stroke-width="0.4398" connectorname="2" cy="1.2116" id="connector1pad" fill="none" gorn="0.1.0.4"  cx="4.5466" stroke="#F7BD13"/>
            <circle r="0.7199" stroke-width="0.4398" connectorname="5" cy="3.7516" id="connector4pad" fill="none" gorn="0.1.0.5"  cx="8.3566" stroke="#F7BD13"/>
            <circle r="0.7199" stroke-width="0.4398" connectorname="3" cy="3.7516" id="connector2pad" fill="none" gorn="0.1.0.6"  cx="5.8166" stroke="#F7BD13"/>
            <circle r="0.7199" stroke-width="0.4398" connectorname="1" cy="3.7516" id="connector0pad" fill="none" gorn="0.1.0.7"  cx="3.2766" stroke="#F7BD13"/>
            <path stroke-width="0" d="m2.3368,2.8118 1.8796,0 0,1.8796 -1.8796,0 0,-1.8796zM2.7766,3.7516a0.5,0.5 0 1 0 1,0 0.5,0.5 0 1 0 -1,0z&#xa;" fill="#F7BD13"  stroke="none"/>
            <circle r="1.6" stroke-width="0" cy="10.1016" id="nonconn0" fill="black" gorn="0.1.0.9"  cx="2.0066" stroke="black"/>
            <circle r="1.6" stroke-width="0" cy="10.1016" id="nonconn1" fill="black" gorn="0.1.0.10"  cx="13.4366" stroke="black"/>
        </g>
    </g>
    <g id="silkscreen" gorn="0.2" >
        <line stroke-width="0.2032" y2="0.1016" x2="15.3416" x1="0.1016" stroke-linecap="round"  stroke="#f0f0f0" class="other" y1="0.1016"/>
        <line stroke-width="0.2032" y2="0.1016" x2="0.1016" x1="0.1016" stroke-linecap="round"  stroke="#f0f0f0" class="other" y1="13.1016"/>
        <line stroke-width="0.2032" y2="13.1016" x2="15.3416" x1="0.1016" stroke-linecap="round"  stroke="#f0f0f0" class="other" y1="13.1016"/>
        <line stroke-width="0.2032" y2="13.1016" x2="15.3416" x1="15.3416" stroke-linecap="round"  stroke="#f0f0f0" class="other" y1="0.1016"/>
    </g>
</svg>
